<svg id="eBAuZFPI2Jt1" xmlns="http://www.w3.org/2000/svg" xmlns:xlink="http://www.w3.org/1999/xlink" viewBox="0 0 360 360" shape-rendering="geometricPrecision" text-rendering="geometricPrecision"><path d="M209.301482,134.525905c-.514762-.128691-.355169,12.399859-.483859,12.399859q-.12869,0,29.155347,57.964516l25.494253-36.737299-12.005365-16.729756l27.858602-.576057l53.100649-40.347499h-94.448139q-28.156727,24.154926-28.671488,24.026236Z" transform="translate(.000001 0.000001)" fill="#e6b54f" stroke="#e6b54f" stroke-width="0.72"/><path d="M167.265194,162.714884h25.185489l29.023919,99.664504-41.4746,42.02071-41.08532-42.02071l28.350512-99.664504Z" transform="translate(.000001 0)" fill="#e6b54f" stroke="#e6b54f" stroke-width="0.72"/><path d="M150.925196,134.525905l-.253225,12.399859-28.361194,58.676131-24.984861-37.448914l12.239205-16.729756-28.952051-.576057-53.346054-40.347499h95.043761l28.614419,24.026236Z" transform="translate(.000001 0.000001)" fill="#e6b54f" stroke="#e6b54f" stroke-width="0.72"/><path d="M180,122.107565L138.914683,80.624164q11.757289-27.580504,11.757289-27.660447t58.145652,0l12.656979,27.660447L180,122.107565Z" fill="#e6b54f" stroke="#e6b54f" stroke-width="0.72"/></svg>
